<svg width="21" height="15" viewBox="0 0 21 15" fill="none" xmlns="http://www.w3.org/2000/svg">
<g clip-path="url(#clip0)">
<path d="M20.1616 2.58325H0.838297C0.595182 2.58325 0.362025 2.50423 0.190116 2.36358C0.0182081 2.22293 -0.0783691 2.03216 -0.0783691 1.83325C-0.0783691 1.63434 0.0182081 1.44357 0.190116 1.30292C0.362025 1.16227 0.595182 1.08325 0.838297 1.08325H20.1616C20.4047 1.08325 20.6379 1.16227 20.8098 1.30292C20.9817 1.44357 21.0783 1.63434 21.0783 1.83325C21.0783 2.03216 20.9817 2.22293 20.8098 2.36358C20.6379 2.50423 20.4047 2.58325 20.1616 2.58325Z" fill="black" fill-opacity="0.8"/>
<path d="M13.4058 8.08331H0.838297C0.595182 8.08331 0.362025 8.0043 0.190116 7.86364C0.0182081 7.72299 -0.0783691 7.53223 -0.0783691 7.33331C-0.0783691 7.1344 0.0182081 6.94363 0.190116 6.80298C0.362025 6.66233 0.595182 6.58331 0.838297 6.58331H13.4058C13.6489 6.58331 13.8821 6.66233 14.054 6.80298C14.2259 6.94363 14.3225 7.1344 14.3225 7.33331C14.3225 7.53223 14.2259 7.72299 14.054 7.86364C13.8821 8.0043 13.6489 8.08331 13.4058 8.08331Z" fill="black" fill-opacity="0.8"/>
<path d="M6.59496 13.5833H0.838298C0.595182 13.5833 0.362025 13.5043 0.190116 13.3636C0.0182081 13.223 -0.0783691 13.0322 -0.0783691 12.8333C-0.0783691 12.6344 0.0182081 12.4436 0.190116 12.303C0.362025 12.1623 0.595182 12.0833 0.838298 12.0833H6.59496C6.83808 12.0833 7.07124 12.1623 7.24314 12.303C7.41505 12.4436 7.51163 12.6344 7.51163 12.8333C7.51163 13.0322 7.41505 13.223 7.24314 13.3636C7.07124 13.5043 6.83808 13.5833 6.59496 13.5833Z" fill="black" fill-opacity="0.8"/>
</g>
<defs>
<clipPath id="clip0">
<rect width="21" height="15" fill="white"/>
</clipPath>
</defs>
</svg>
